<?xml version="1.0" standalone="no"?>
<!DOCTYPE svg PUBLIC "-//W3C//DTD SVG 20010904//EN"
 "http://www.w3.org/TR/2001/REC-SVG-20010904/DTD/svg10.dtd">
<svg version="1.0" xmlns="http://www.w3.org/2000/svg"
 width="1024.000000pt" height="1024.000000pt" viewBox="0 0 1024.000000 1024.000000"
 preserveAspectRatio="xMidYMid meet">

<g transform="translate(0.000000,1024.000000) scale(0.100000,-0.100000)"
fill="#000000" stroke="none">
<path d="M6214 5863 c-14 -77 -102 -187 -158 -199 -17 -3 -38 -12 -46 -19 -8
-7 -27 -15 -42 -19 -35 -8 -35 -19 -1 -35 26 -12 26 -14 10 -26 -16 -11 -16
-13 -1 -19 8 -3 53 -6 98 -6 102 0 119 -10 117 -71 0 -24 -4 -329 -7 -677 l-5
-633 -25 -10 c-14 -5 -65 -9 -114 -9 -109 0 -125 -5 -101 -29 10 -10 43 -35
74 -55 50 -33 65 -38 116 -38 112 0 188 62 231 187 19 53 22 96 29 375 8 304
16 381 37 349 5 -8 11 -158 12 -333 3 -191 7 -313 13 -305 5 8 9 147 10 309 1
162 4 358 8 435 4 77 5 145 4 150 -2 6 -34 11 -75 11 -62 0 -73 3 -89 23 -11
13 -19 37 -19 55 0 17 -7 69 -14 116 -13 80 -10 159 7 187 4 6 12 35 17 64 11
58 0 118 -30 156 -10 13 -21 38 -24 58 -9 48 -24 52 -32 8z"/>
<path d="M7175 5845 c-13 -103 -16 -115 -36 -126 -11 -6 -37 -8 -57 -5 -64 11
-137 -7 -166 -40 -21 -24 -25 -39 -26 -86 l0 -58 123 0 c82 0 127 -4 135 -12
18 -18 16 -268 -2 -294 -12 -16 -30 -20 -133 -24 l-118 -5 -3 -518 -2 -518
-26 -9 c-14 -6 -64 -10 -112 -10 -48 0 -97 -3 -110 -6 l-23 -7 24 -16 c14 -9
50 -33 81 -54 49 -34 62 -39 118 -39 64 -1 89 7 144 48 74 57 104 193 104 484
0 259 15 334 83 423 29 37 91 77 121 77 8 0 17 -13 21 -30 4 -16 11 -30 16
-30 14 0 10 72 -6 100 -8 14 -15 36 -15 50 0 14 -9 43 -20 65 -11 22 -19 46
-20 54 0 8 -9 32 -19 55 -11 23 -30 74 -42 115 -23 79 -19 103 17 109 61 9 69
13 53 25 -11 9 -16 32 -17 86 -1 59 -6 79 -21 95 -11 12 -25 43 -31 70 -17 79
-27 87 -35 31z"/>
<path d="M3060 5778 c0 -9 5 -20 10 -23 13 -8 13 5 0 25 -8 13 -10 13 -10 -2z"/>
<path d="M3100 5722 c0 -10 5 -23 11 -29 6 -6 21 -41 34 -77 47 -136 42 -413
-10 -531 -75 -167 -212 -290 -395 -351 -45 -16 -97 -20 -295 -24 l-239 -5 2
-265 c2 -152 -1 -271 -7 -279 -6 -10 -39 -15 -113 -18 -56 -2 -114 -6 -127 -9
-24 -5 -24 -5 12 -38 106 -94 245 -103 323 -19 35 38 69 108 82 169 18 84 50
158 87 202 41 47 103 74 215 91 150 24 257 53 330 89 91 45 202 127 225 165
19 32 31 28 40 -13 9 -41 21 -38 29 8 12 71 19 418 11 566 l-7 149 -44 43
c-24 23 -44 46 -44 51 0 5 -11 20 -25 33 -14 13 -25 29 -25 35 0 6 -11 21 -25
33 -14 12 -25 26 -25 32 0 5 -4 10 -10 10 -5 0 -10 -8 -10 -18z"/>
<path d="M2210 5631 c-1 -6 -1 -138 -1 -293 l0 -283 112 3 c114 3 162 13 122
26 -34 11 -47 72 -35 156 13 89 45 140 104 169 77 37 187 21 203 -29 8 -25 25
-16 25 13 -1 39 -37 133 -61 158 -13 14 -46 38 -74 54 -49 29 -53 29 -222 33
-123 3 -173 1 -173 -7z"/>
<path d="M5714 5395 c-7 -29 -19 -32 -33 -7 -14 24 -18 7 -25 -103 -8 -105
-16 -119 -66 -105 -19 6 -64 10 -100 10 -117 0 -222 -75 -241 -172 -4 -24 -8
-224 -9 -444 0 -359 -2 -403 -16 -415 -12 -10 -70 -16 -202 -21 -101 -4 -187
-10 -190 -13 -3 -3 16 -5 43 -5 38 0 69 -11 147 -50 90 -45 105 -50 167 -50
59 0 73 4 108 29 99 72 119 138 128 425 7 233 14 289 50 361 29 60 94 128 138
146 18 7 44 21 60 31 21 15 28 16 32 6 2 -7 10 -26 16 -43 l12 -30 9 30 c11
37 14 345 4 403 -9 47 -22 55 -32 17z"/>
<path d="M7700 5380 c0 -36 21 -140 45 -220 7 -25 16 -63 20 -85 3 -22 12 -56
20 -75 12 -33 27 -85 60 -220 7 -30 20 -82 29 -115 9 -32 16 -70 16 -83 0 -13
5 -22 12 -20 11 4 27 54 52 168 8 36 19 83 25 105 17 63 14 122 -7 142 -10 10
-31 50 -47 88 -46 114 -81 178 -111 207 -43 39 -77 79 -96 113 l-17 30 -1 -35z"/>
<path d="M8580 5377 c0 -8 -11 -35 -25 -61 -14 -26 -25 -52 -25 -58 0 -5 -7
-24 -14 -41 -16 -35 -49 -127 -70 -197 -8 -25 -19 -61 -26 -80 -34 -93 -45
-128 -56 -165 -18 -60 -45 -136 -59 -170 -7 -16 -16 -46 -20 -65 -4 -19 -11
-41 -16 -50 -9 -16 -41 -107 -63 -180 -8 -25 -19 -61 -26 -80 -7 -19 -21 -60
-32 -90 -10 -30 -28 -73 -39 -95 -10 -22 -19 -43 -19 -47 0 -17 -69 -107 -118
-154 -77 -75 -176 -120 -293 -135 -131 -15 -136 -16 -142 -38 -9 -37 117 -108
211 -117 169 -18 368 80 485 239 71 95 98 165 316 813 147 436 152 454 154
540 2 98 -16 149 -61 169 -13 6 -26 23 -30 39 -8 31 -32 48 -32 23z"/>
<path d="M3769 5343 c-19 -48 -28 -170 -28 -388 -1 -322 25 -423 115 -461 40
-17 59 -17 141 -3 70 12 72 19 10 34 -40 10 -42 12 -54 65 -8 30 -18 161 -23
290 -5 129 -14 255 -20 280 -12 50 -56 130 -70 130 -5 0 -19 18 -30 40 -11 22
-23 40 -25 40 -3 0 -10 -12 -16 -27z"/>
<path d="M4643 5344 c-17 -26 -18 -63 -21 -589 -1 -308 -4 -570 -7 -582 -5
-23 -6 -23 -204 -23 -174 0 -200 -2 -218 -17 -37 -33 -113 -134 -113 -150 0
-16 7 -16 85 7 24 7 122 13 245 14 203 1 205 1 262 29 66 33 145 95 140 111
-2 6 -3 138 -2 294 1 316 1 316 -66 246 -33 -36 -35 -36 -54 -19 -31 28 -25
49 33 116 94 110 89 93 83 274 -2 88 -10 181 -16 207 -11 44 -13 47 -39 42
-23 -5 -33 0 -59 31 l-30 37 -19 -28z"/>
<path d="M4152 4242 c-37 -47 -154 -107 -238 -123 -61 -12 -260 -4 -279 10
-17 14 -52 19 -66 10 -9 -5 -5 -11 16 -21 17 -7 37 -20 46 -29 9 -10 31 -20
48 -24 17 -4 35 -15 41 -24 5 -10 35 -27 67 -39 65 -23 192 -46 201 -37 4 3 1
15 -6 25 -20 33 -14 46 41 92 28 23 69 60 89 80 20 21 41 38 46 38 13 0 42 45
42 65 0 25 -15 17 -48 -23z"/>
</g>
</svg>
